<svg width="205" height="209" viewBox="0 0 205 209" xmlns="http://www.w3.org/2000/svg"><path d="M204.36 150.92c-8.5 0-16.584-3.771-22.766-9.39-6.181-5.618-10.46-13.085-13.292-17.58-2.834-4.494-3.349-9.33-2.802-14.301.548-4.972 2.158-10.08 3.574-15.12 1.416-5.039 4.31-9.037 7.623-12.33 3.313-3.294 7.048-5.157 10.148-7.376 3.138-2.244 8.666-4.179 15.088-4.758-7.09-21.322-20.278-39.35-41.66-52.995C125.23-5.295 100.288-2.172 69.063 6.647 31.29 17.315-4.894 69.185.858 113.282c5.753 44.097 16.646 66.755 43.767 81.078 32.825 17.335 68.81 18.342 98.392 7.918 25.73-9.066 52.803-20.188 61.882-51.374-.181.001-.357.016-.54.016" fill="#5FB86C" fill-rule="evenodd"/></svg>