<svg height="47" viewBox="0 0 204 47" width="204" xmlns="http://www.w3.org/2000/svg"><mask id="a" fill="#fff"><path d="M.228.252h21.444v27.077H.228z" fill-rule="evenodd"/></mask><mask id="b" fill="#fff"><path d="M.143.072h21.501v30.659H.143z" fill-rule="evenodd"/></mask><mask id="c" fill="#fff"><path d="M0 46.748h203.974V.362H0z" fill-rule="evenodd"/></mask><g fill="#00972c" fill-rule="evenodd"><path d="M18.17 1.525C13.814-1.034 6.994.121 2.938 6.286-.517 11.54-.265 20.063 1.455 27.33c3.538-9.154 13.177-10.593 17.454-14.138 3.922-3.251 3.663-9.079-.74-11.666" mask="url(#a)" transform="translate(24.106 .11)"/><path d="M30.548 32.526c2.298-.263 5.523-1.208 8.288-2.747 3.963-2.206 4.123-4.871 3.247-6.654-.983-1.999-3.668-2.81-6.889-1.137-3.13 1.625-5.755 4.163-7.268 6.452-1 1.513-1.344 2.562-.902 3.335.417.73 1.375.998 3.524.751"/><path d="M6.822 30.83c-4.848-3.247-6.437.1-4.759 4.52C4.6 42.03 11.357 46.4 19.7 46.646c12.474.367 21.496-8.141 24.63-17.129-3.995 3.743-10.84 7.197-19.84 6.97-5.874-.148-11.957-1.831-17.668-5.656"/><path d="M10.012 16.895c4.423 6.064 8.88 10.933 12.483 13.74.05-4.788-1.366-12.151-3.879-16.716C13.581 4.77 6.107 1.653 2.14 4.793-2.134 8.176.414 17.245 6.064 23.343c4.345 4.692 9.38 7.382 13.31 8.317-4.103-3.36-8.62-10.777-9.799-14.632-.205-.67.052-.66.437-.133m173.446 16.848c-3.471 0-6.09-2.846-6.09-6.62 0-3.8 2.619-6.665 6.09-6.665 3.498 0 6.135 2.866 6.135 6.665 0 3.774-2.637 6.62-6.135 6.62zm5.819-27.505V18.61c-1.631-1.654-3.92-2.517-6.452-2.517-5.845 0-10.253 4.742-10.253 11.03 0 6.263 4.408 10.985 10.253 10.985 2.659 0 5.04-.947 6.7-2.773l.393 2.318h4.155V6.238z"/><path d="M4.623 11.057c0-3.773 2.637-6.62 6.135-6.62 3.471 0 6.09 2.847 6.09 6.62 0 3.8-2.619 6.666-6.09 6.666-3.498 0-6.135-2.866-6.135-6.666zm.316 8.497c1.649 1.707 3.958 2.534 6.452 2.534 5.846 0 10.253-4.742 10.253-11.03 0-6.263-4.407-10.986-10.253-10.986-2.595 0-5.023.893-6.698 2.794L4.3.524H.143v30.207h4.796z" mask="url(#b)" transform="translate(89.947 16.018)"/><path d="M85.216 6.238h-4.978v18.883c0 5.311-3.437 8.357-7.912 8.357-4.474 0-7.86-3.046-7.86-8.357V6.238h-4.978v18.974c0 7.954 5.425 12.896 12.838 12.896 7.301 0 12.89-5.062 12.89-12.896z"/><path d="M163.499 37.655h4.797V6.238h-4.797zm-13.932-11.691h-.165c-1.737 0-3.615-.254-4.932-.717.477-2.824 2.788-4.886 5.646-4.886h.015c2.535.002 4.237 1.154 4.237 2.868 0 1.788-1.615 2.709-4.8 2.735m7.204-7.785c-1.62-1.366-3.878-2.088-6.53-2.088-5.151 0-10.626 3.896-10.626 11.116 0 6.615 4.291 10.89 10.932 10.89 3.521 0 6.2-1.08 8.67-3.5l-2.896-3.202c-1.68 1.655-3.57 2.46-5.773 2.46-3.299 0-5.715-1.982-6.153-4.862 1.77.667 3.717.924 5.553.924 5.776 0 9.224-2.445 9.224-6.542 0-2.046-.853-3.892-2.4-5.196m-26.23 19.476h4.798V16.541h-4.798z" mask="url(#c)"/><path d="M132.758 7.11c-1.59-1.68-3.726-2.61-6.559-2.61-2.584 0-4.789.941-6.314 2.556-1.858 1.967-2.602 4.236-2.602 8.003v1.482h-4.212v4.253h4.212v16.862h4.797V20.794h4.506v-4.253h-4.506V14.31c0-1.979.237-3.235 1.26-4.284.675-.693 1.707-1.174 2.954-1.174 1.121 0 2.152.395 2.852 1.075.773.75 1.152 1.598 1.281 2.777h4.76c-.234-2.15-.945-4.024-2.429-5.592m68.444-.861l.89 2.503.894-2.503h.989v3.496h-.639v-2.82l-.962 2.82h-.557l-.971-2.82v2.82h-.638V6.251zm-4.55.584V6.25h2.966v.584h-1.137v2.912h-.691V6.835z" mask="url(#c)"/></g></svg>